# xmcd CD database file
#
# Track frame offsets:
#	150
#	23856
#	49425
#	70028
#	90453
#	122753
#	145622
#	167716
#	193942
#	221822
#	244889
#	264147
#
# Disc length: 3751 seconds
#
# Revision: 0
# Processed by: cddbd v1.5PL3 Copyright (c) Steve Scherf et al.
# Submitted via: CDex 1.51
#
DISCID=ac0ea50c
DTITLE=Raphy Rey - De Fiesta No. 2
DYEAR=2000
DGENRE=Merengue
TTITLE0=No Puede Estar Triste
TTITLE1=Vamos Cantando
TTITLE2=Yo Soy Testigo
TTITLE3=La Caravana
TTITLE4=Hablemos de Cristo
TTITLE5=Dime, Hermano
TTITLE6=Aleluya
TTITLE7=Hay Una Fiesta
TTITLE8=Oh, Oh, Oh
TTITLE9=Bautizame, Señor
TTITLE10=Salmo 150
TTITLE11=Nace del Espiritu
EXTD=YEAR: 2000
EXTT0=
EXTT1=
EXTT2=
EXTT3=
EXTT4=
EXTT5=
EXTT6=
EXTT7=
EXTT8=
EXTT9=
EXTT10=
EXTT11=
PLAYORDER=
